<svg id="Layer_1" data-name="Layer 1" xmlns="http://www.w3.org/2000/svg" viewBox="0 0 637.2 525.2"><defs><style>.cls-1{fill:none;stroke:#f97dd6;stroke-miterlimit:10;stroke-width:6px;}</style></defs><title>Glow</title><path class="cls-1" d="M557.3,496.9a1.4,1.4,0,0,0-1.9-1.4c-3.9,1.4-14.7,3.7-41.9,3-37.5-1,23.3-42.8,25-44h0c1.1-.9,24.7-19.9-32-16-52.5,3.6-109.1-20.6-119.4-25.2a1.4,1.4,0,0,1-.4-2.3c4.1-4.6,20.1-17,65.8-4.5,48.8,13.3-73.8-74.8-102.3-95a1.4,1.4,0,0,1,1.2-2.5c16.6,3.8,59.1,15.5,82.1,38.5,29,29-166.1-180.9-94-180,79,1,71,96,102,81,28.8-13.9,9-120.3-3.8-150.8-.6-1.4.8-1.9,2.2-1.7,42.6,6.5,116.6,138.5,147.6,149.5s49-52,72-42,62,55,87,52,41-108,71-111-25,75,0,76,56-149,68-120-22,185,11,160,55-97,58-78-45,212-85,227,36,10,74-27-63,90-120,93,32,86,40,91-66,16-106-9c-36.8-23-6.7,28.5-1.7,36.9a1.4,1.4,0,0,1-.4,1.9c-6,4.2-36.2,22.8-71.9,2.2-32.8-18.8-41.4,5.9-43.4,15.5a1.4,1.4,0,0,1-2.6.5c-6.9-10.6-28.6-47.1-21-75s-49,27.7-62.3,41.2a1.4,1.4,0,0,1-2.4-1.1Z" transform="translate(-320.4 -92.9)"/></svg>